<?xml version="1.0" encoding="UTF-8"?>
<svg id="Layer_2" xmlns="http://www.w3.org/2000/svg" version="1.1" viewBox="0 0 144.6 151.62">
  <!-- Generator: Adobe Illustrator 29.2.1, SVG Export Plug-In . SVG Version: 2.1.0 Build 116)  -->
  <defs>
    <style>
      .st0 {
        fill: #1d1d1b;
      }

      .st1, .st2 {
        fill: #fff;
      }

      .st2 {
        stroke: #1d1d1b;
        stroke-miterlimit: 10;
      }

      .st3 {
        fill: #991a1f;
      }
    </style>
  </defs>
  <path class="st0" d="M27.9,143.74l-.08.15h-1.96l-3.76-4.65-1.02,1.09v3.56h-1.8v-10.53h1.8v4.86l4.63-4.86h2.01l.08.15-4.41,4.63,4.5,5.6ZM38.83,143.74l-.08.15h-1.8l-.94-2.14h-5.13l-.96,2.14h-1.73l-.08-.15,4.89-10.38h.97l4.86,10.38ZM35.43,140.38l-1.96-4.47-1.99,4.47h3.95ZM48.53,143.74l-.08.15h-1.77l-2.25-4.23h-2.27v4.23h-1.8v-10.53h4.23c2.53,0,3.87,1.2,3.87,3.19,0,1.47-.83,2.48-2.23,2.9l2.3,4.29ZM42.17,138.33h2.59c1.17,0,1.88-.71,1.88-1.73s-.71-1.72-1.88-1.72h-2.59v3.45ZM60.11,143.74l-.08.15h-1.8l-.94-2.14h-5.13l-.96,2.14h-1.73l-.08-.15,4.89-10.38h.97l4.86,10.38ZM56.71,140.38l-1.96-4.47-1.99,4.47h3.95ZM64.53,143.88h-1.8v-9.01h-3.4v-1.52h8.6v1.52h-3.4v9.01ZM71.32,134.88v2.98h4.34v1.46h-4.34v3.05h5.52v1.52h-7.32v-10.53h7.3v1.52h-5.51ZM92.52,138.6c0,3.17-2.17,5.28-5.51,5.28h-4.29v-10.53h4.29c3.34,0,5.51,2.11,5.51,5.25ZM90.69,138.62c0-2.28-1.47-3.74-3.71-3.74h-2.46v7.48h2.46c2.24,0,3.71-1.46,3.71-3.74ZM93.87,138.62c0-3.13,2.45-5.46,5.65-5.46s5.65,2.33,5.65,5.46-2.45,5.46-5.65,5.46-5.65-2.33-5.65-5.46ZM103.36,138.62c0-2.24-1.67-3.84-3.84-3.84s-3.82,1.6-3.82,3.84,1.67,3.84,3.82,3.84,3.84-1.6,3.84-3.84ZM102,130.71v1.28h-4.94v-1.28h4.94ZM112.38,133.35v6.88c0,2.64-1.47,3.84-3.5,3.84-1.59,0-2.69-.76-3.3-1.62v-.15l1.09-1h.13c.36.5.97,1.15,1.99,1.15s1.8-.71,1.8-2.02v-7.08h1.8ZM114.31,138.62c0-3.13,2.45-5.46,5.65-5.46s5.65,2.33,5.65,5.46-2.45,5.46-5.65,5.46-5.65-2.33-5.65-5.46ZM123.8,138.62c0-2.24-1.67-3.84-3.84-3.84s-3.82,1.6-3.82,3.84,1.67,3.84,3.82,3.84,3.84-1.6,3.84-3.84ZM122.44,130.71v1.28h-4.94v-1.28h4.94ZM26.27,127.41l-.05.09h-1.14l-.6-1.36h-3.26l-.61,1.36h-1.1l-.05-.09,3.11-6.6h.62l3.09,6.6ZM21.01,119.31c0-.42.34-.76.75-.76s.76.34.76.76-.34.75-.76.75-.75-.34-.75-.75ZM24.11,125.28l-1.24-2.84-1.27,2.84h2.51ZM23.23,119.31c0-.42.35-.76.76-.76s.75.34.75.76-.34.75-.75.75-.76-.34-.76-.75ZM31.48,127.5h-4.23v-6.69h1.14v5.72h3.09v.97ZM34.1,127.5h-1.14v-5.72h-2.16v-.97h5.46v.97h-2.16v5.72ZM38.41,121.78v1.89h2.76v.93h-2.76v1.93h3.51v.97h-4.65v-6.69h4.64v.97h-3.5ZM42.66,126.35v-.09l.62-.64h.09c.48.62,1.27,1.02,1.94,1.02.84,0,1.35-.39,1.35-.93,0-.8-.86-.9-1.85-1.26-.79-.28-1.81-.72-1.81-1.89,0-1.09.95-1.87,2.34-1.87,1.05,0,1.88.43,2.35,1.02v.09l-.61.64h-.08c-.36-.42-.91-.79-1.64-.79s-1.19.34-1.19.84c0,.57.55.77,1.18,1,1.13.39,2.49.71,2.49,2.2,0,1.2-1.05,1.93-2.45,1.93-1.1,0-2.13-.47-2.73-1.28ZM51.59,127.5h-1.14v-5.72h-2.16v-.97h5.46v.97h-2.16v5.72ZM55.9,121.78v1.89h2.76v.93h-2.76v1.93h3.51v.97h-4.65v-6.69h4.64v.97h-3.5ZM60.15,126.35v-.09l.62-.64h.09c.48.62,1.27,1.02,1.94,1.02.84,0,1.35-.39,1.35-.93,0-.8-.86-.9-1.85-1.26-.79-.28-1.81-.72-1.81-1.89,0-1.09.95-1.87,2.34-1.87,1.05,0,1.88.43,2.35,1.02v.09l-.61.64h-.08c-.36-.42-.91-.79-1.64-.79s-1.19.34-1.19.84c0,.57.55.77,1.18,1,1.13.39,2.49.71,2.49,2.2,0,1.2-1.05,1.93-2.45,1.93-1.1,0-2.13-.47-2.73-1.28ZM75.12,127.5l-.46-4.27-1.93,4.27h-.59l-1.9-4.28-.46,4.28h-1.1l.81-6.69h.62l2.33,5.09,2.33-5.09h.61l.82,6.69h-1.06ZM78.6,120.81v3.93c0,1.11.72,1.85,1.8,1.85s1.8-.74,1.8-1.85v-3.93h1.11v3.91c0,1.75-1.16,2.9-2.91,2.9s-2.94-1.15-2.94-2.9v-3.91h1.14ZM78.53,119.31c0-.42.34-.76.75-.76s.76.34.76.76-.35.75-.76.75-.75-.34-.75-.75ZM80.75,119.31c0-.42.34-.76.76-.76s.75.34.75.76-.34.75-.75.75-.76-.34-.76-.75ZM90.63,120.81v6.76h-.64l-3.9-4.7v4.63h-1.12v-6.69h.64l3.9,4.69v-4.69h1.12ZM91.94,124.16c0-1.99,1.55-3.47,3.54-3.47,1.15,0,2.14.51,2.78,1.32v.09l-.72.58h-.08c-.45-.59-1.16-.96-1.97-.96-1.35,0-2.4,1.02-2.4,2.44s1.05,2.44,2.4,2.44c.8,0,1.51-.37,1.97-.96h.08l.72.58v.09c-.63.79-1.61,1.32-2.79,1.32-1.98,0-3.53-1.48-3.53-3.47ZM105.07,120.81v6.69h-1.14v-2.88h-3.38v2.88h-1.14v-6.69h1.14v2.84h3.38v-2.84h1.14ZM112.48,120.81v6.76h-.64l-3.9-4.7v4.63h-1.12v-6.69h.64l3.9,4.69v-4.69h1.12ZM115.38,121.78v1.89h2.76v.93h-2.76v1.93h3.51v.97h-4.65v-6.69h4.64v.97h-3.5ZM125.4,127.41l-.05.09h-1.12l-1.43-2.69h-1.44v2.69h-1.14v-6.69h2.69c1.61,0,2.46.76,2.46,2.03,0,.94-.52,1.57-1.42,1.84l1.46,2.73ZM121.36,123.97h1.65c.74,0,1.19-.45,1.19-1.1s-.45-1.09-1.19-1.09h-1.65v2.19Z"/>
  <g>
    <polygon class="st1" points="72.28 5.47 6.28 56.97 72.28 108.46 138.29 56.97 72.28 5.47"/>
    <circle class="st3" cx="72.28" cy="70.46" r="28.49"/>
    <path class="st0" d="M70.07,63.25c-.2.06-.16.31-.09.46.26.62.53,1.3,1.12,1.67.25.15.66.13.78-.18.2-.42,0-.89-.22-1.26-.16-.26-.47-.28-.73-.38-.29-.1-.57-.26-.87-.31h0ZM66.08,64.2c-.21.06-.21.35-.1.5.4.54.8,1.11,1.37,1.46.23.13.59.17.76-.07.18-.33,0-.71-.11-1.03-.12-.27-.28-.57-.56-.71-.32-.1-.67-.04-1-.12-.12-.02-.24-.04-.37-.03h0ZM77.27,65.35c-.37-.13-.76-.19-1.14-.29-.23-.05-.5-.05-.68.12-.24.18-.55.17-.83.24-.14.03-.28.05-.42.07.42-.4.87-.77,1.27-1.18.13-.16.15-.4.01-.57-.25-.39-.63-.73-1.1-.83-.08-.01-.16-.01-.24-.01-.23,0-.35.33-.17.48.14.22,0,.48-.07.7-.24.56-.49,1.1-.81,1.62-.94.22-1.91.35-2.85.57-.37.08-.74.17-1.11.19-.15,0-.32.17-.22.33.12.19.35.25.53.37.17.1.39.13.58.04.73-.18,1.46-.41,2.21-.48.1.13.02.31.01.45-.06.3-.14.6-.26.87-.42.06-.84.03-1.26,0-.2.02-.32.26-.23.44.19.63.11,1.29.1,1.93-.02.72-.08,1.43-.15,2.14.05.48.32.93.68,1.24.18.13.51.05.53-.2,0-.1.14-.04.2-.08.64-.13,1.29-.24,1.95-.23.32.1.43.47.62.72.11.17.21.42.44.43.28-.02.43-.31.56-.53.37-.71.27-1.54.31-2.31.02-1,0-2,.04-3,.08-.17.26-.34.15-.54-.11-.18-.3-.28-.45-.42-.21-.16-.43-.35-.7-.37-.28.03-.52.21-.8.26-.31.1-.63.19-.94.27.2-.31.48-.59.63-.93.02-.17-.13-.28-.2-.41.36-.05.72-.13,1.08-.14.93-.07,1.86-.02,2.79-.07.18,0,.37-.1.39-.3.05-.29-.24-.5-.47-.6ZM74.31,68.29c.16.21.06.5.1.75,0,1.15.02,2.31-.03,3.46-.26-.17-.6-.35-.92-.2-.48.18-.97.32-1.47.42-.09,0-.26.1-.31.05.01-.29,0-.61.06-.89.62-.14,1.25-.23,1.87-.36.25-.06.57-.09.71-.34.1-.16,0-.37-.16-.44-.25-.15-.54-.21-.82-.29-.18-.03-.34.09-.45.21-.33.19-.7.27-1.06.4-.15.08-.07-.16-.09-.24,0-.14,0-.28,0-.42.68-.07,1.35-.26,2.02-.39.23-.06.53-.21.52-.48-.02-.22-.25-.32-.43-.36-.29-.1-.66-.17-.9.07-.36.23-.81.27-1.22.37,0-.24.01-.49-.04-.73.4-.07.78-.19,1.18-.27.48-.12.96-.23,1.45-.33ZM67.44,68.39c-.32.07-.51.37-.78.54-.46.36-.92.74-1.45,1.01-.15.08-.26.33-.09.45.17.11.39.08.58.07.5-.07.87-.46,1.3-.68.12-.1.14-.05.08.09-.16.6-.36,1.2-.48,1.81.08.27.36.39.49.62.14.14.29.34.21.55-.06.43-.17.85-.28,1.27-.65.16-1.31.27-1.93.53-.14.08-.22.32-.04.41.3.08.54.35.87.3.94-.32,1.94-.63,2.94-.45,2.17.39,4.18,1.33,6.25,2.06.4.12.8.35,1.23.27.34-.06.64-.24.97-.34.67-.26,1.35-.53,2-.82.17-.1.37-.21.43-.4.01-.17-.19-.25-.33-.21-1.64.04-3.31.12-4.93-.23-.93-.11-1.84-.36-2.74-.59-1.05-.25-2.12-.45-3.19-.61-.18-.02-.38,0-.55-.01.15-.31.24-.64.36-.96.06-.24.19-.49.14-.74-.09-.32-.37-.54-.62-.73-.13-.08-.27-.15-.42-.22.33-.51.64-1.05,1-1.54.14-.17.41-.3.37-.55-.03-.28-.33-.38-.54-.5-.27-.14-.54-.31-.84-.4-.01,0-.02,0-.04,0h0ZM67.44,68.39,72.67,44.53c-.25-.02-.4.31-.25.5.02.05.09.11,0,.12-1.43.93-2.92,1.79-4.53,2.34-.21.08-.2.42.02.48.19.03.39-.05.58-.06.78-.14,1.56-.36,2.32-.57.2-.07.31.17.36.32.11.32.16.66.16.99-1.24.33-2.49.6-3.73.92-.15.05-.27.26-.13.39.19.2.46.28.7.37.33.06.63-.13.95-.18.74-.19,1.49-.37,2.25-.5.04.58.1,1.15.11,1.73-1.95.34-3.86.85-5.79,1.26-.28.09-.61.03-.84.23-.13.18.04.4.23.44.33.15.65.4,1.03.36.35-.06.68-.22,1.03-.29,1.44-.4,2.89-.72,4.36-.99,0,1.23.03,2.47-.06,3.7-.05.32-.1.65-.27.93-.42.18-.87.02-1.31,0-.3-.03-.61-.14-.91-.07-.19.13-.07.43.12.5.84.48,1.74.95,2.3,1.78.12.18.38.3.57.15.25-.17.31-.5.47-.74.46-.9.48-1.93.57-2.91.11-1.14,0-2.29.06-3.43-.05-.17.09-.17.23-.18,1.49-.18,2.98-.23,4.48-.17.24,0,.52.03.69-.18.14-.16.16-.41.08-.59-.16-.25-.45-.39-.72-.5-.43-.16-.88-.3-1.33-.37-.3-.04-.64.02-.84.27-.39.32-.93.24-1.39.33-.43.05-.85.13-1.28.16-.02-.55-.07-1.1-.09-1.65,1.05-.11,2.1-.14,3.14-.21.35-.24.25-.83-.13-.99-.43-.26-.94-.43-1.45-.43-.33.07-.58.35-.91.37-.26.06-.51.12-.77.16-.07-.42-.14-.9-.5-1.17-.09-.08-.19-.15-.28-.22.84-.29,1.72-.52,2.49-.97.19-.22.04-.57-.17-.72-.43-.38-.99-.64-1.56-.73h-.02ZM70.96,26.91c-.25,0-.6.02-.68.31-.02.3.28.46.44.67.21.36.16.8.2,1.2-.13.03-.27.03-.39.06-1.05.16-2.1.34-3.14.47-.11,0-.11-.16-.18-.23-.13-.22-.3-.48-.57-.53-.17,0-.24.2-.21.34,0,.37.02.76-.2,1.08-.17.33-.45.61-.58.96-.07.32.09.63.22.92.12.25.42.47.7.34.28-.12.35-.44.47-.69.17-.42.27-.87.35-1.32,2.47-.37,4.94-.79,7.42-1.13.42-.04.86-.13,1.28-.06-.21.5-.5.96-.72,1.45-.07.13-.16.36,0,.46.21.11.42-.08.59-.19.48-.29.89-.73,1.46-.84.32-.04.7.04.98-.17.18-.21.04-.51-.12-.69-.39-.51-.94-.89-1.52-1.18-.27-.06-.48.17-.75.17-1.29.2-2.57.41-3.86.59.06-.36.15-.72.22-1.08.04-.3-.22-.5-.45-.63-.3-.14-.62-.3-.96-.28h0ZM71.84,30.11c-.3.05-.47.43-.3.68.12.23.21.48.19.75.03.61-.01,1.23.07,1.84.11.39.31.81.71.98.6.3,1.3.18,1.95.18.58-.03,1.18-.06,1.72-.29.24-.15.26-.53.04-.71-.28-.3-.73-.52-1.14-.36-.37.13-.71.4-1.12.35-.33,0-.71.07-.98-.15-.21-.31-.11-.72-.1-1.07.03-.35.15-.69.22-1.03,0-.43-.39-.71-.7-.94-.16-.11-.34-.22-.54-.22h0ZM69.41,30.64c-.24.03-.29.35-.19.52.08.18.23.39.13.6-.21,1.05-.75,2-1.42,2.82-.16.21-.37.39-.5.62-.08.14,0,.36.18.34.29-.01.5-.26.74-.39,1.01-.7,1.89-1.63,2.31-2.8.08-.22.24-.42.24-.66-.05-.33-.34-.54-.59-.71-.28-.17-.59-.3-.91-.34h0ZM73.22,34.91c-.26.1-.36.43-.65.49-1.08.22-2.16.52-3.25.71-.24.04-.51.01-.71.15-.12.17.05.36.2.44.21.15.46.33.73.21.45-.09.89-.25,1.35-.27.08.23.03.49.06.73.02.67.02,1.35,0,2.02-1.69.25-3.38.55-5.07.8-.15.02-.29.15-.24.32.07.26.35.34.55.48.21.12.47.15.7.06,1.46-.31,2.92-.64,4.41-.77,1.99-.2,3.99-.09,5.98.08.27.02.6-.03.75-.29.16-.24.09-.6-.16-.76-.43-.39-1.01-.56-1.58-.67-.22-.02-.42.09-.57.24-.41.24-.91.14-1.37.19-.73.03-1.46.1-2.19.16.05-.71.05-1.43.14-2.13.06-.2.13-.47-.03-.65.58-.04,1.16-.07,1.75-.12.3-.06.65-.01.9-.22.21-.18.12-.53-.1-.65-.46-.33-1.04-.4-1.58-.53h0Z"/>
    <path class="st0" d="M72.28,21.96l44.87,35-44.87,35L27.41,56.97l44.87-35M72.28,5.47L6.28,56.97l66.01,51.49,66.01-51.49L72.28,5.47h0Z"/>
  </g>
  <g>
    <rect class="st2" x="19.28" y="79.22" width="106.04" height="21.05"/>
    <path class="st0" d="M33.48,94.44l-.59-5.41-2.45,5.41h-.74l-2.41-5.43-.59,5.43h-1.4l1.03-8.48h.78l2.95,6.46,2.95-6.46h.77l1.04,8.48h-1.34ZM37.89,85.96v4.98c0,1.41.91,2.35,2.28,2.35s2.28-.94,2.28-2.35v-4.98h1.41v4.96c0,2.22-1.47,3.68-3.69,3.68s-3.73-1.46-3.73-3.68v-4.96h1.45ZM37.8,84.06c0-.54.43-.97.95-.97s.97.43.97.97-.44.95-.97.95-.95-.43-.95-.95ZM40.62,84.06c0-.54.43-.97.97-.97s.95.43.95.97-.43.95-.95.95-.97-.43-.97-.95ZM53.15,85.96v8.57h-.81l-4.94-5.96v5.87h-1.42v-8.48h.81l4.94,5.95v-5.95h1.42ZM54.82,90.2c0-2.52,1.97-4.4,4.49-4.4,1.46,0,2.71.65,3.52,1.67v.12l-.91.73h-.1c-.57-.74-1.47-1.21-2.49-1.21-1.71,0-3.04,1.29-3.04,3.09s1.33,3.09,3.04,3.09c1.02,0,1.92-.47,2.49-1.21h.1l.91.73v.12c-.8,1-2.04,1.67-3.54,1.67-2.5,0-4.48-1.88-4.48-4.4ZM71.47,85.96v8.48h-1.45v-3.65h-4.29v3.65h-1.45v-8.48h1.45v3.6h4.29v-3.6h1.45ZM75.14,87.19v2.4h3.5v1.17h-3.5v2.45h4.45v1.23h-5.9v-8.48h5.88v1.23h-4.44ZM88.44,85.96v8.57h-.81l-4.94-5.96v5.87h-1.42v-8.48h.81l4.94,5.95v-5.95h1.42ZM95.92,85.87v8.61h-1.44v-7.38h-1.63v-1.23h3.07ZM102.07,91.53c.1,1.27,1.07,1.93,2.14,1.93.72,0,1.55-.29,2.04-.86h.12l.72.65v.1c-.69.87-1.9,1.24-2.91,1.24-1.89,0-3.51-1.29-3.51-3.41,0-1.97,1.42-3.43,3.37-3.43.94,0,1.74.33,2.32.9.6.59.97,1.44.97,2.41,0,.18-.01.34-.04.46h-5.21ZM102.08,90.55h3.82c-.07-.47-.25-.86-.52-1.14-.34-.35-.81-.55-1.38-.55-1.03,0-1.76.65-1.92,1.68ZM108.32,93.62c0-.55.44-.98.98-.98s.99.43.99.98-.44.98-.99.98-.98-.44-.98-.98ZM118.18,86.08l-3.73,8.36h-.78l-3.73-8.36.07-.12h1.49l2.57,6.16,2.62-6.16h1.44l.06.12ZM117.83,93.62c0-.55.44-.98.98-.98s.99.43.99.98-.44.98-.99.98-.98-.44-.98-.98Z"/>
  </g>
</svg>